# xmcd CD database file
# Generated: Mon May 12 11:24:14 2003 by KSCD
# 
# Track frame offsets:
#       150
#       16248
#       21622
#       42814
#       62499
#       72598
#       88735
#       105309
#       128188
#       145754
#       159721
#       172212
#       185951
#       203658
#       221584
#       239300
#       251125
#       270301
#       284362
#       298660
#
# Disc length: 4268 seconds
#
# Revision: 1
# Processed by: cddbd v1.4PL0 Copyright (c) Steve Scherf et al.
# Submitted via: Kscd 1.3.3
#
DISCID=3610aa14
DTITLE=Steve Miller Band - Greatest Hits
DYEAR=1900
DGENRE=
TTITLE0=The joker
TTITLE1=Space intro
TTITLE2=Fly like an eagle
TTITLE3=Jet Airliner
TTITLE4=Dance dance dance
TTITLE5=Give it up
TTITLE6=Keeps me wondering why
TTITLE7=Abracadabra
TTITLE8=Swingtown
TTITLE9=Jungle love
TTITLE10=Take the money and run
TTITLE11=Rock 'n me
TTITLE12=The stake
TTITLE13=Heart is like a wheel
TTITLE14=Wide river
TTITLE15=True fine love
TTITLE16=Cry cry cry
TTITLE17=Serenade
TTITLE18=Winter time
TTITLE19=Wild mountain honey
EXTD=
EXTT0=
EXTT1=
EXTT2=
EXTT3=
EXTT4=
EXTT5=
EXTT6=
EXTT7=
EXTT8=
EXTT9=
EXTT10=
EXTT11=
EXTT12=
EXTT13=
EXTT14=
EXTT15=
EXTT16=
EXTT17=
EXTT18=
EXTT19=
PLAYORDER=
